<svg preserveAspectRatio="none" width="640" height="832" viewBox="0 0 640 832" fill="none" xmlns="http://www.w3.org/2000/svg">
<g filter="url(#filter0_b_27_311)">
<path d="M194.905 635.184H191.016C190.945 634.681 190.8 634.234 190.581 633.843C190.362 633.446 190.081 633.109 189.738 632.831C189.395 632.553 188.998 632.34 188.548 632.192C188.104 632.044 187.622 631.97 187.101 631.97C186.16 631.97 185.34 632.204 184.642 632.671C183.944 633.133 183.402 633.808 183.017 634.695C182.633 635.577 182.44 636.648 182.44 637.909C182.44 639.205 182.633 640.294 183.017 641.176C183.408 642.058 183.952 642.724 184.651 643.174C185.349 643.623 186.157 643.848 187.074 643.848C187.589 643.848 188.066 643.78 188.504 643.644C188.948 643.508 189.341 643.31 189.685 643.049C190.028 642.783 190.312 642.46 190.537 642.082C190.768 641.703 190.927 641.271 191.016 640.786L194.905 640.803C194.804 641.638 194.553 642.443 194.15 643.218C193.754 643.987 193.218 644.677 192.543 645.287C191.874 645.89 191.075 646.37 190.146 646.725C189.223 647.074 188.178 647.249 187.012 647.249C185.391 647.249 183.941 646.882 182.662 646.148C181.39 645.414 180.384 644.351 179.644 642.961C178.91 641.57 178.543 639.886 178.543 637.909C178.543 635.926 178.916 634.24 179.661 632.849C180.407 631.458 181.419 630.398 182.698 629.67C183.976 628.937 185.414 628.57 187.012 628.57C188.066 628.57 189.042 628.718 189.942 629.013C190.848 629.309 191.65 629.741 192.348 630.31C193.046 630.872 193.614 631.561 194.052 632.378C194.496 633.195 194.78 634.13 194.905 635.184ZM200.453 647H196.334L202.611 628.818H207.565L213.832 647H209.713L205.159 632.973H205.017L200.453 647ZM200.196 639.853H209.926V642.854H200.196V639.853ZM216.021 628.818H220.761L225.769 641.034H225.982L230.989 628.818H235.729V647H232.001V635.166H231.85L227.145 646.911H224.606L219.9 635.121H219.749V647H216.021V628.818ZM238.897 647V628.818H246.07C247.449 628.818 248.624 629.082 249.594 629.608C250.565 630.129 251.305 630.854 251.814 631.783C252.329 632.707 252.586 633.772 252.586 634.979C252.586 636.187 252.326 637.252 251.805 638.175C251.284 639.099 250.53 639.818 249.541 640.333C248.559 640.848 247.369 641.105 245.972 641.105H241.4V638.025H245.351C246.091 638.025 246.7 637.897 247.18 637.643C247.665 637.382 248.026 637.024 248.263 636.569C248.505 636.107 248.627 635.577 248.627 634.979C248.627 634.376 248.505 633.849 248.263 633.399C248.026 632.943 247.665 632.591 247.18 632.343C246.694 632.088 246.079 631.961 245.333 631.961H242.741V647H238.897ZM266.314 628.818H270.158V640.626C270.158 641.951 269.841 643.112 269.208 644.106C268.58 645.1 267.702 645.875 266.571 646.432C265.441 646.982 264.124 647.257 262.62 647.257C261.111 647.257 259.791 646.982 258.661 646.432C257.531 645.875 256.652 645.1 256.024 644.106C255.397 643.112 255.083 641.951 255.083 640.626V628.818H258.927V640.297C258.927 640.99 259.078 641.605 259.38 642.144C259.688 642.682 260.12 643.106 260.676 643.413C261.233 643.721 261.881 643.875 262.62 643.875C263.366 643.875 264.014 643.721 264.565 643.413C265.121 643.106 265.55 642.682 265.852 642.144C266.16 641.605 266.314 640.99 266.314 640.297V628.818ZM283.184 634.047C283.113 633.331 282.808 632.775 282.269 632.378C281.731 631.982 281 631.783 280.077 631.783C279.449 631.783 278.919 631.872 278.487 632.05C278.055 632.221 277.724 632.461 277.493 632.769C277.268 633.077 277.156 633.426 277.156 633.816C277.144 634.142 277.212 634.426 277.36 634.669C277.514 634.911 277.724 635.121 277.99 635.299C278.257 635.471 278.564 635.622 278.914 635.752C279.263 635.876 279.636 635.983 280.032 636.071L281.666 636.462C282.459 636.64 283.187 636.876 283.85 637.172C284.512 637.468 285.087 637.832 285.572 638.264C286.057 638.696 286.433 639.205 286.699 639.791C286.972 640.377 287.111 641.049 287.117 641.806C287.111 642.919 286.827 643.884 286.264 644.701C285.708 645.511 284.903 646.142 283.85 646.592C282.802 647.036 281.538 647.257 280.059 647.257C278.591 647.257 277.313 647.033 276.224 646.583C275.14 646.133 274.294 645.467 273.684 644.585C273.081 643.697 272.764 642.6 272.735 641.292H276.454C276.496 641.901 276.67 642.41 276.978 642.819C277.292 643.221 277.709 643.526 278.23 643.733C278.757 643.934 279.352 644.035 280.014 644.035C280.665 644.035 281.231 643.94 281.71 643.751C282.195 643.561 282.571 643.298 282.838 642.961C283.104 642.623 283.237 642.236 283.237 641.798C283.237 641.389 283.116 641.046 282.873 640.768C282.636 640.49 282.287 640.253 281.825 640.058C281.37 639.862 280.81 639.685 280.148 639.525L278.168 639.028C276.635 638.655 275.425 638.072 274.537 637.279C273.649 636.486 273.208 635.417 273.214 634.074C273.208 632.973 273.501 632.011 274.093 631.189C274.691 630.366 275.51 629.724 276.552 629.262C277.594 628.8 278.777 628.57 280.103 628.57C281.453 628.57 282.63 628.8 283.637 629.262C284.649 629.724 285.436 630.366 285.998 631.189C286.56 632.011 286.85 632.964 286.868 634.047H283.184ZM311.531 635.184H307.642C307.571 634.681 307.426 634.234 307.207 633.843C306.988 633.446 306.707 633.109 306.364 632.831C306.021 632.553 305.624 632.34 305.174 632.192C304.73 632.044 304.248 631.97 303.727 631.97C302.786 631.97 301.966 632.204 301.268 632.671C300.57 633.133 300.028 633.808 299.643 634.695C299.259 635.577 299.066 636.648 299.066 637.909C299.066 639.205 299.259 640.294 299.643 641.176C300.034 642.058 300.578 642.724 301.277 643.174C301.975 643.623 302.783 643.848 303.7 643.848C304.215 643.848 304.692 643.78 305.13 643.644C305.574 643.508 305.967 643.31 306.311 643.049C306.654 642.783 306.938 642.46 307.163 642.082C307.394 641.703 307.553 641.271 307.642 640.786L311.531 640.803C311.43 641.638 311.179 642.443 310.776 643.218C310.38 643.987 309.844 644.677 309.169 645.287C308.5 645.89 307.701 646.37 306.772 646.725C305.849 647.074 304.804 647.249 303.638 647.249C302.017 647.249 300.567 646.882 299.288 646.148C298.016 645.414 297.01 644.351 296.27 642.961C295.536 641.57 295.169 639.886 295.169 637.909C295.169 635.926 295.542 634.24 296.287 632.849C297.033 631.458 298.045 630.398 299.324 629.67C300.602 628.937 302.04 628.57 303.638 628.57C304.692 628.57 305.668 628.718 306.568 629.013C307.474 629.309 308.276 629.741 308.974 630.31C309.672 630.872 310.24 631.561 310.678 632.378C311.122 633.195 311.406 634.13 311.531 635.184ZM330.995 637.909C330.995 639.892 330.62 641.579 329.868 642.969C329.122 644.36 328.104 645.423 326.814 646.157C325.53 646.885 324.085 647.249 322.482 647.249C320.866 647.249 319.416 646.882 318.131 646.148C316.847 645.414 315.832 644.351 315.086 642.961C314.341 641.57 313.968 639.886 313.968 637.909C313.968 635.926 314.341 634.24 315.086 632.849C315.832 631.458 316.847 630.398 318.131 629.67C319.416 628.937 320.866 628.57 322.482 628.57C324.085 628.57 325.53 628.937 326.814 629.67C328.104 630.398 329.122 631.458 329.868 632.849C330.62 634.24 330.995 635.926 330.995 637.909ZM327.098 637.909C327.098 636.625 326.906 635.542 326.521 634.66C326.142 633.778 325.607 633.109 324.914 632.653C324.222 632.198 323.411 631.97 322.482 631.97C321.552 631.97 320.741 632.198 320.049 632.653C319.357 633.109 318.818 633.778 318.433 634.66C318.054 635.542 317.865 636.625 317.865 637.909C317.865 639.193 318.054 640.277 318.433 641.158C318.818 642.04 319.357 642.709 320.049 643.165C320.741 643.621 321.552 643.848 322.482 643.848C323.411 643.848 324.222 643.621 324.914 643.165C325.607 642.709 326.142 642.04 326.521 641.158C326.906 640.277 327.098 639.193 327.098 637.909ZM333.843 628.818H338.584L343.591 641.034H343.804L348.811 628.818H353.552V647H349.823V635.166H349.672L344.967 646.911H342.428L337.723 635.121H337.572V647H333.843V628.818ZM356.719 647V628.818H363.892C365.271 628.818 366.446 629.082 367.417 629.608C368.387 630.129 369.127 630.854 369.636 631.783C370.151 632.707 370.409 633.772 370.409 634.979C370.409 636.187 370.148 637.252 369.627 638.175C369.106 639.099 368.352 639.818 367.363 640.333C366.381 640.848 365.191 641.105 363.795 641.105H359.222V638.025H363.173C363.913 638.025 364.523 637.897 365.002 637.643C365.487 637.382 365.848 637.024 366.085 636.569C366.328 636.107 366.449 635.577 366.449 634.979C366.449 634.376 366.328 633.849 366.085 633.399C365.848 632.943 365.487 632.591 365.002 632.343C364.517 632.088 363.901 631.961 363.155 631.961H360.563V647H356.719ZM373.94 647H369.82L376.097 628.818H381.051L387.319 647H383.199L378.645 632.973H378.503L373.94 647ZM373.682 639.853H383.412V642.854H373.682V639.853ZM398.955 634.047C398.884 633.331 398.579 632.775 398.041 632.378C397.502 631.982 396.771 631.783 395.848 631.783C395.221 631.783 394.691 631.872 394.259 632.05C393.827 632.221 393.495 632.461 393.265 632.769C393.04 633.077 392.927 633.426 392.927 633.816C392.915 634.142 392.983 634.426 393.131 634.669C393.285 634.911 393.495 635.121 393.762 635.299C394.028 635.471 394.336 635.622 394.685 635.752C395.034 635.876 395.407 635.983 395.804 636.071L397.437 636.462C398.23 636.64 398.958 636.876 399.621 637.172C400.284 637.468 400.858 637.832 401.343 638.264C401.829 638.696 402.205 639.205 402.471 639.791C402.743 640.377 402.882 641.049 402.888 641.806C402.882 642.919 402.598 643.884 402.036 644.701C401.48 645.511 400.675 646.142 399.621 646.592C398.574 647.036 397.31 647.257 395.83 647.257C394.362 647.257 393.084 647.033 391.995 646.583C390.912 646.133 390.066 645.467 389.456 644.585C388.852 643.697 388.536 642.6 388.506 641.292H392.226C392.267 641.901 392.442 642.41 392.75 642.819C393.063 643.221 393.481 643.526 394.001 643.733C394.528 643.934 395.123 644.035 395.786 644.035C396.437 644.035 397.002 643.94 397.482 643.751C397.967 643.561 398.343 643.298 398.609 642.961C398.875 642.623 399.009 642.236 399.009 641.798C399.009 641.389 398.887 641.046 398.645 640.768C398.408 640.49 398.059 640.253 397.597 640.058C397.141 639.862 396.582 639.685 395.919 639.525L393.939 639.028C392.406 638.655 391.196 638.072 390.308 637.279C389.42 636.486 388.98 635.417 388.985 634.074C388.98 632.973 389.272 632.011 389.864 631.189C390.462 630.366 391.282 629.724 392.324 629.262C393.365 628.8 394.549 628.57 395.875 628.57C397.224 628.57 398.402 628.8 399.408 629.262C400.42 629.724 401.207 630.366 401.77 631.189C402.332 632.011 402.622 632.964 402.64 634.047H398.955ZM415.337 634.047C415.266 633.331 414.961 632.775 414.423 632.378C413.884 631.982 413.153 631.783 412.23 631.783C411.602 631.783 411.073 631.872 410.641 632.05C410.209 632.221 409.877 632.461 409.646 632.769C409.421 633.077 409.309 633.426 409.309 633.816C409.297 634.142 409.365 634.426 409.513 634.669C409.667 634.911 409.877 635.121 410.144 635.299C410.41 635.471 410.718 635.622 411.067 635.752C411.416 635.876 411.789 635.983 412.185 636.071L413.819 636.462C414.612 636.64 415.34 636.876 416.003 637.172C416.666 637.468 417.24 637.832 417.725 638.264C418.211 638.696 418.586 639.205 418.853 639.791C419.125 640.377 419.264 641.049 419.27 641.806C419.264 642.919 418.98 643.884 418.418 644.701C417.861 645.511 417.056 646.142 416.003 646.592C414.955 647.036 413.692 647.257 412.212 647.257C410.744 647.257 409.466 647.033 408.377 646.583C407.294 646.133 406.447 645.467 405.838 644.585C405.234 643.697 404.917 642.6 404.888 641.292H408.608C408.649 641.901 408.824 642.41 409.131 642.819C409.445 643.221 409.862 643.526 410.383 643.733C410.91 643.934 411.505 644.035 412.168 644.035C412.819 644.035 413.384 643.94 413.863 643.751C414.349 643.561 414.725 643.298 414.991 642.961C415.257 642.623 415.39 642.236 415.39 641.798C415.39 641.389 415.269 641.046 415.026 640.768C414.79 640.49 414.44 640.253 413.979 640.058C413.523 639.862 412.964 639.685 412.301 639.525L410.321 639.028C408.788 638.655 407.578 638.072 406.69 637.279C405.802 636.486 405.361 635.417 405.367 634.074C405.361 632.973 405.654 632.011 406.246 631.189C406.844 630.366 407.664 629.724 408.705 629.262C409.747 628.8 410.931 628.57 412.256 628.57C413.606 628.57 414.784 628.8 415.79 629.262C416.802 629.724 417.589 630.366 418.151 631.189C418.714 632.011 419.004 632.964 419.021 634.047H415.337ZM438.872 628.818H442.716V640.626C442.716 641.951 442.4 643.112 441.766 644.106C441.139 645.1 440.26 645.875 439.13 646.432C437.999 646.982 436.682 647.257 435.179 647.257C433.67 647.257 432.35 646.982 431.22 646.432C430.089 645.875 429.21 645.1 428.583 644.106C427.955 643.112 427.642 641.951 427.642 640.626V628.818H431.486V640.297C431.486 640.99 431.637 641.605 431.939 642.144C432.246 642.682 432.678 643.106 433.235 643.413C433.791 643.721 434.439 643.875 435.179 643.875C435.925 643.875 436.573 643.721 437.123 643.413C437.68 643.106 438.109 642.682 438.411 642.144C438.718 641.605 438.872 640.99 438.872 640.297V628.818ZM449.013 647H444.894L451.17 628.818H456.124L462.392 647H458.273L453.718 632.973H453.576L449.013 647ZM448.756 639.853H458.486V642.854H448.756V639.853Z" fill="black"/>
</g>
<rect width="640" height="832" fill="url(#paint0_linear_27_311)"/>
<path d="M247.599 494.866C251.732 493.482 255.967 492.386 260.269 491.586L260.79 493.39C260.848 493.602 260.985 493.788 261.176 493.913C261.368 494.037 261.6 494.093 261.831 494.069L278.865 492.195C283.551 482.098 292.155 466.799 292.279 466.565C292.155 462.746 292.279 459.537 292.279 455.882C282.535 459.303 264.509 465.792 255.087 469.939C254.874 470.069 254.709 470.258 254.616 470.481C254.522 470.703 254.505 470.948 254.566 471.18C254.566 471.18 254.74 471.766 254.963 472.609C250.351 472.609 236.54 471.977 233.218 474.952C232.701 475.632 232.447 476.459 232.499 477.295C232.3 480.528 234.011 505.642 236.739 513.022C238.152 516.887 241.127 516.466 243.16 512.764C245.514 507.19 247.024 501.33 247.648 495.358C247.648 495.053 247.574 495.076 247.599 494.866ZM244.747 473.898C247.772 473.664 248.715 473.711 255.211 473.523C256.376 477.693 258.781 486.268 260.021 490.649C255.646 491.289 251.328 492.236 247.103 493.483C245.786 487.022 244.999 480.474 244.747 473.898Z" fill="black"/>
<path d="M475.811 268.86C476.431 268.04 475.638 266.986 474.968 266.166C476.865 264.323 478.968 262.681 481.242 261.27C485.078 259.463 488.585 257.091 491.631 254.241C492.895 253 495.276 250.446 494.383 248.947C493.49 247.447 491.903 247.354 489.746 248.221C490.681 247.293 491.444 246.224 492.003 245.058C492.697 243.231 491.06 241.755 487.515 243.113C488.804 241.169 489.102 239.131 486.92 238.147C485.159 237.35 482.58 239.248 481.093 240.489C478.171 242.901 475.429 245.5 472.886 248.267C471.324 245.175 468.844 241.614 465.745 242.739C462.645 243.863 465.05 248.9 466.637 251.641L461.009 255.319C460.158 254.885 459.197 254.682 458.232 254.733C451.835 255.764 422.453 276.896 419.477 276.896C417.196 276.896 384.616 262.137 356.449 257.873C356.394 257.713 356.293 257.571 356.157 257.463C356.021 257.356 355.856 257.286 355.68 257.264C350.767 256.471 345.786 256.119 340.803 256.209C340.652 256.219 340.505 256.26 340.372 256.328C340.239 256.397 340.124 256.492 340.034 256.608H337.952C337.456 254.71 335.621 250.329 334.976 248.642C336.662 247.26 338.993 246.557 340.208 244.332C342.439 240.208 342.34 233.04 341.72 228.448C344.522 226.433 344.597 223.2 343.952 219.897C343.704 218.561 342.935 215.539 341.745 214.789C341.076 214.368 339.662 214.789 338.447 215.211C337.232 212.54 337.232 213.759 337.728 212.681C337.959 212.184 338.093 211.653 338.125 211.111C339.439 211.486 342.167 209.003 341.224 205.723C340.731 204.549 340.125 203.42 339.414 202.349C339.762 201.553 340.505 200.592 338.175 197.664C337.171 196.641 335.868 195.923 334.431 195.602H333.29C332.468 194.474 331.26 193.647 329.868 193.26C327.768 192.754 325.542 193.048 323.67 194.08C323.174 194.431 322.777 194.9 322.281 195.228C321.16 194.584 319.873 194.244 318.562 194.244C317.25 194.244 315.964 194.584 314.843 195.228C314.186 195.471 313.589 195.837 313.086 196.304C312.583 196.771 312.186 197.329 311.917 197.945C310.702 197.549 309.413 197.397 308.132 197.497C306.852 197.598 305.607 197.95 304.478 198.531C300.195 200.725 296.991 204.417 295.552 208.815C295.512 209.479 295.512 210.144 295.552 210.807H295.279C291.56 210.291 286.824 218.632 290.618 225.121C291.064 225.894 291.635 226.62 292.18 227.464C293.767 229.807 293.147 230.509 296.693 233.368C297.734 234.211 297.908 234.141 298.552 234.656C299.197 235.171 298.949 234.914 299.321 236.226C299.524 236.999 299.887 237.726 300.389 238.365C300.891 239.004 301.523 239.543 302.247 239.951C302.51 242.242 303.544 244.393 305.197 246.089C305.721 246.642 306.331 247.116 307.007 247.494C307.19 247.591 307.393 247.648 307.603 247.658C308.346 252.016 309.264 257.685 309.66 260.098L307.454 261.223C304.566 262.321 301.759 263.596 299.048 265.042C298.836 265.181 298.685 265.389 298.627 265.627C295.998 266.939 293.519 268.181 292.106 268.977C272.418 280.012 216.506 352.754 215.936 356.081C215.873 356.272 215.873 356.476 215.936 356.667C216.737 357.875 217.713 358.971 218.837 359.923C218.49 360.52 218.075 361.078 217.597 361.586C212.638 364.655 205.199 369.224 201.207 373.3C200.927 373.536 200.717 373.837 200.598 374.173C200.479 374.509 200.454 374.868 200.527 375.216C200.599 375.564 200.766 375.888 201.012 376.155C201.257 376.423 201.573 376.626 201.926 376.744C202.67 376.978 202.794 376.908 207.629 374.401C206.3 375.503 205.214 376.84 204.431 378.337C204.108 379.626 205.348 380.375 206.91 380.141C207.789 379.923 208.626 379.575 209.39 379.11C208.942 379.763 208.705 380.523 208.705 381.301C208.705 382.078 208.942 382.839 209.39 383.491C211.869 386.443 218.365 377.142 221.787 374.846C223.176 376.51 225.06 380.399 228.06 379.368C230.664 378.454 227.812 373.042 228.06 371.473C229.069 370.558 230.146 369.712 231.284 368.943C233.196 370.283 235.383 371.232 237.706 371.73C241.797 371.73 284.494 331.013 287.742 327.757C286.576 338.112 280.7 382.554 281.94 391.199C282.51 395.111 292.453 395.673 296.643 395.884C295.379 423.997 294.536 466.589 294.312 467.034C287.742 480.411 285.956 484.066 283.75 488.118C279.733 495.381 262.823 522.182 260.914 528.273C260.641 529.234 260.616 529.609 261.682 531.389C258.487 534.563 255.522 537.936 252.806 541.486C251.442 543.829 257.294 565.664 261.434 573.395C262.376 575.128 263.914 577.799 265.972 577.729C272.171 577.518 272.146 556.48 271.972 550.6C271.971 550.418 271.901 550.244 271.774 550.108C272.897 548.523 274.123 547.005 275.443 545.563C276.232 546.075 277.061 546.53 277.923 546.922C278.766 547.273 279.708 546.664 280.402 546.125C288.659 539.987 333.191 487.556 342.737 462.817C347.076 451.525 352.853 435.922 354.49 424.864C355.49 417.873 355.582 410.792 354.762 403.779C354.762 403.68 354.804 403.585 354.879 403.514C354.953 403.444 355.054 403.405 355.159 403.405C355.264 403.405 355.365 403.444 355.44 403.514C355.514 403.585 355.556 403.68 355.556 403.779C356.798 410.832 357.039 418.009 356.275 425.122C354.44 440.467 341.621 472.445 334.778 484.206C340.679 483.175 352.68 480.926 358.482 479.286C377.822 473.734 395.674 457.171 397.236 438.569C397.742 429.806 397.742 421.023 397.236 412.26C397.069 400.162 395.405 388.125 392.277 376.393C397.534 373.698 402.344 370.536 403.906 367.631C407.253 361.422 398.402 325.695 396.468 315.668C407.055 316.77 425.081 318.761 433.486 312.553C443.107 305.243 463.885 284.674 475.811 268.86ZM270.633 549.311C266.17 546.758 259.922 540.69 258.98 535.934C259.996 534.716 261.062 533.591 262.054 532.326C265.414 537.171 269.604 541.454 274.452 545.001C273.09 546.365 271.815 547.804 270.633 549.311ZM467.753 252.297C467.881 252.22 467.973 252.099 468.01 251.959C468.047 251.82 468.026 251.673 467.951 251.547C467.084 250.024 464.48 244.66 466.29 244.05C467.332 243.676 468.249 244.285 469.018 245.105C470.191 246.512 471.105 248.096 471.72 249.79C471.766 249.928 471.851 250.051 471.965 250.147C472.08 250.243 472.22 250.308 472.37 250.334C472.52 250.36 472.675 250.348 472.818 250.297C472.962 250.247 473.088 250.161 473.183 250.048C475.663 247.447 481.465 241.52 484.738 239.927C487.217 238.709 487.812 240.958 481.737 246.206C480.342 247.211 479.001 248.282 477.721 249.415C477.65 249.507 477.612 249.618 477.612 249.732C477.612 249.845 477.65 249.956 477.721 250.048C477.721 250.657 478.241 251.336 479.134 250.704C481.289 248.916 483.567 247.265 485.953 245.761C487.17 244.943 488.585 244.428 490.069 244.261C489.325 246.417 482.407 252.274 481.812 252.93C481.623 253.089 481.508 253.313 481.492 253.552C481.476 253.791 481.56 254.026 481.726 254.207C481.892 254.388 482.126 254.501 482.379 254.52C482.631 254.54 482.882 254.465 483.076 254.312C485.829 252.625 490.639 248.689 492.3 249.275C493.961 249.861 489.027 254.218 487.787 255.249C480.671 261.082 482.506 257.334 474.274 265.252C470.691 261.544 466.576 258.326 462.05 255.694L467.753 252.297ZM360.019 364.351C359.598 361.118 359.077 357.627 358.432 353.996L359.498 352.66C364.457 346.64 365.945 337.058 365.474 329.538C368.127 340.525 370.235 351.325 371.846 362.055L360.019 364.351ZM323.149 284.135C316.628 279.449 306.14 271.367 300.04 265.838L309.958 261.153C319.065 269.19 326.861 278.459 333.092 288.656C342.618 305.192 349.685 322.891 354.093 341.251L318.735 293.998L323.347 284.955C323.408 284.816 323.422 284.662 323.387 284.515C323.351 284.368 323.268 284.235 323.149 284.135ZM339.91 257.568C340.059 257.826 341.77 261.27 344.373 267.291C344.373 267.548 343.902 273.405 343.679 275.467C340.515 274.282 337.53 272.706 334.803 270.781C335.348 268.743 337.803 259.489 337.976 257.404L339.91 257.568ZM331.108 282.729C331.282 282.308 331.455 281.745 331.654 281.089L333.315 281.909C334.257 282.495 333.885 280.715 334.728 285.869C334.728 286.735 334.976 287.696 335.026 288.75C333.885 286.806 332.472 284.721 331.133 282.729H331.108ZM329.72 280.761C325.035 274.484 319.703 268.661 313.801 263.378L332.472 271.039C331.753 272.655 330.711 277.599 329.744 280.761H329.72ZM348.787 294.49C346.307 288.094 344.398 280.949 343.456 279.075C343.512 278.49 343.512 277.902 343.456 277.318C343.815 277.444 344.19 277.523 344.572 277.552C344.811 277.554 345.043 277.475 345.225 277.329C345.408 277.182 345.528 276.979 345.564 276.755C345.762 275.982 346.084 272.07 346.134 271.203C353.347 288.409 359.368 306.041 364.16 323.985C350.151 295.825 352.308 303.978 348.812 294.49H348.787ZM369.292 339.213C363.639 313.607 353.696 281.675 342.39 258.013C346.542 258.015 350.688 258.329 354.787 258.95C356.895 276.755 355.134 276.146 356.548 276.849C357.961 277.552 366.466 280.785 367.73 281.277C367.606 283.081 369.392 334.668 369.317 339.213H369.292ZM340.753 216.289C342.046 218.954 342.502 221.914 342.067 224.816C341.866 225.555 341.451 226.227 340.869 226.756C340.287 227.285 339.562 227.652 338.773 227.814C337.984 227.977 337.162 227.93 336.4 227.677C335.638 227.425 334.965 226.978 334.455 226.386C333.272 224.031 332.382 221.555 331.802 219.006C332.472 218.186 339.613 216.547 340.753 216.289ZM306.635 239.716C305.73 239.327 304.803 238.983 303.858 238.686C303.225 238.439 302.659 238.059 302.205 237.575C301.75 237.09 301.42 236.513 301.238 235.889C301.056 235.265 301.028 234.61 301.155 233.974C301.283 233.338 301.563 232.738 301.974 232.22C303.536 230.978 304.949 231.048 306.239 232.899C307.057 234.328 307.032 234.445 307.404 234.586C307.511 234.63 307.626 234.653 307.743 234.651C307.86 234.65 307.974 234.625 308.08 234.579C308.186 234.532 308.28 234.465 308.356 234.381C308.431 234.298 308.487 234.2 308.52 234.094C308.887 232.627 308.946 231.107 308.693 229.619C308.396 228.003 308.346 220.834 308.396 220.6C309.12 220.96 309.934 221.13 310.751 221.091C315.239 220.928 316.132 218.749 317.917 216.968C319.975 217.156 320.397 218.093 322.727 216.968C323.819 216.382 324.82 215.656 325.703 214.813C326.415 215.089 327.104 215.418 327.761 215.797C329.247 216.472 330.923 216.679 332.543 216.388C334.163 216.098 335.641 215.324 336.761 214.18C337.034 214.672 337.282 215.164 337.505 215.68C335.227 216.348 333.082 217.369 331.158 218.702C330.736 219.194 331.356 221.865 331.505 222.497C329.428 222.744 327.418 223.356 325.579 224.301C325.207 223.083 324.389 220.81 323.099 220.178C322.712 220.066 322.297 220.066 321.909 220.178C319.678 220.506 311.669 222.778 310.702 224.02C309.859 224.887 312.264 231.587 313.008 232.688C315.859 236.858 324.215 235.64 325.777 230.767C326.164 229.132 326.164 227.436 325.777 225.8C326.496 225.8 328.653 225.074 328.901 225.004C330.612 228.635 331.108 228.846 333.092 232.758C332.819 232.969 332.373 233.321 332.001 233.555C330.24 234.656 329.868 234.469 329.968 234.937C329.996 235.03 330.06 235.11 330.147 235.162C330.234 235.214 330.337 235.234 330.439 235.218C331.479 235.078 332.496 234.81 333.464 234.422C334.043 234.218 334.52 233.817 334.803 233.297C335.497 231.821 331.654 226.269 330.141 224.606C330.439 224.606 331.133 224.137 331.654 223.879C332.348 226.503 332.819 228.565 335.497 229.596C336.271 229.872 337.096 229.997 337.922 229.965C338.749 229.933 339.56 229.744 340.307 229.408C340.704 233.532 340.629 240.232 338.547 243.886C337.48 245.784 334.852 246.51 333.166 248.08C332.67 248.525 332.993 249.158 333.166 249.837C335.918 257.076 335.968 257.053 335.819 257.99C335.089 261.879 334.07 265.715 332.769 269.469C332.15 269.212 325.182 265.721 311.545 260.707C311.123 258.06 308.867 243.933 308.148 241.333C308.198 240.419 308.074 240.208 306.635 239.599V239.716ZM323.992 230.158C323.199 232.712 319.454 233.813 316.777 233.11C314.099 232.407 313.925 231.118 312.661 228.073C312.068 226.909 311.659 225.67 311.446 224.395C312.264 223.551 321.215 221.818 322.331 221.654C323.896 224.183 324.483 227.148 323.992 230.041V230.158ZM226.969 370.817C226.027 371.684 227.292 374.518 227.49 376.978C227.49 377.189 227.49 378.103 227.341 378.173C225.978 378.595 224.713 376.65 223.944 375.479C223.176 374.308 222.407 372.714 221.192 373.136C218.713 374.237 212.96 381.453 210.704 382.203C209.563 380.141 216.084 374.261 216.307 373.933C216.403 373.782 216.453 373.61 216.452 373.434C216.452 373.258 216.4 373.086 216.303 372.936C216.205 372.787 216.067 372.665 215.901 372.585C215.736 372.504 215.551 372.468 215.365 372.48C214.919 372.48 214.621 372.855 213.927 373.441C211.815 375.388 209.398 377.016 206.761 378.267C209.152 375.675 211.711 373.226 214.423 370.934C214.557 370.804 214.651 370.642 214.696 370.465C214.696 370.465 214.175 369.224 213.159 369.716C211.72 370.465 204.728 374.284 202.521 375.268C202.224 375.081 202.398 374.8 202.521 374.518C206.018 370.465 213.704 365.546 218.415 362.43C218.968 361.892 219.428 361.275 219.779 360.602C223.041 363.471 226.522 366.11 230.193 368.498C229.062 369.198 227.985 369.973 226.969 370.817ZM284.667 392.112C284.122 391.784 283.725 391.48 283.651 391.058C282.287 381.5 289.874 327.335 289.75 325.203C289.75 325.078 289.724 324.955 289.672 324.839C289.621 324.724 289.546 324.62 289.451 324.532C289.356 324.445 289.244 324.377 289.121 324.331C288.997 324.285 288.866 324.263 288.734 324.266C287.469 324.266 289.701 324.266 258.112 352.848C256.029 354.699 240.111 369.083 237.458 370.044C233.813 369.786 220.101 359.454 217.87 356.198C222.184 347.952 274.501 280.105 292.602 269.727C293.99 268.931 296.37 267.689 298.974 266.377C299.874 267.179 300.845 267.908 301.875 268.556C307.627 273.71 315.636 280.129 321.711 284.955L316.975 293.834C316.903 293.951 316.865 294.085 316.865 294.221C316.865 294.356 316.903 294.49 316.975 294.607C355.432 346.733 354.862 346.148 355.11 346.148C357.575 358.193 359.108 370.392 359.697 382.648C359.697 385.951 359.697 385.67 359.845 385.436C359.994 385.201 359.845 385.6 359.845 385.6C353.845 391.784 294.461 397.548 284.667 392.112ZM421.734 314.497C410.502 315.973 397.807 313.771 395.352 313.677C393.988 307.432 391.269 301.521 387.368 296.317C387.308 296.241 387.221 296.19 387.122 296.172C387.024 296.155 386.923 296.173 386.838 296.223C386.753 296.274 386.692 296.352 386.666 296.444C386.64 296.535 386.652 296.632 386.698 296.716C388.137 299.48 392.947 311.405 394.137 314.31C393.765 315.434 405.344 360.673 402.071 366.764C399.145 372.269 382.111 379.204 375.962 381.195C374.746 368.153 372.76 355.185 370.011 342.352C370.854 335.605 369.763 295.497 369.441 280.668C369.432 280.495 369.371 280.329 369.265 280.188C369.16 280.047 369.015 279.937 368.846 279.871L357.713 275.443C357.662 269.876 357.29 264.315 356.597 258.786C384.392 263.331 416.775 278.348 419.477 278.372C423.395 278.372 452.504 257.287 458.529 256.444C461.207 256.045 472.712 265.534 474.051 268.157C462.298 283.666 441.644 304.048 432.073 311.1C428.99 313.048 425.431 314.217 421.734 314.497Z" fill="black"/>
<path d="M321.438 225.472C321.407 225.319 321.345 225.172 321.254 225.041C321.163 224.91 321.045 224.797 320.908 224.709C320.771 224.621 320.617 224.56 320.455 224.528C320.293 224.496 320.126 224.494 319.963 224.524C319.8 224.553 319.645 224.612 319.506 224.698C319.368 224.784 319.248 224.895 319.155 225.024C319.062 225.154 318.997 225.299 318.963 225.452C318.929 225.606 318.928 225.764 318.959 225.918C319.455 228.26 319.554 228.799 320.645 228.799C320.851 228.8 321.054 228.752 321.236 228.66C321.417 228.567 321.572 228.434 321.685 228.271C321.798 228.108 321.867 227.921 321.884 227.727C321.902 227.533 321.868 227.338 321.785 227.159C321.711 226.784 321.488 225.683 321.438 225.472ZM329.025 240.981C330.637 241.427 332.174 240.7 332.125 240.326C332.075 239.951 332.125 240.138 329.943 239.365C328.48 238.85 326.868 237.022 326.298 237.303C325.728 237.584 326.595 239.084 326.794 239.365C327.324 240.125 328.11 240.695 329.025 240.981ZM374.375 218.725C371.127 231.587 368.747 242.504 368.35 244.683C368.087 245.631 368.036 246.62 368.201 247.588C369.516 250.235 386.5 255.46 388.657 254.429C390.814 253.398 396.418 241.473 402.939 229.174C406.934 229.295 410.931 229.02 414.866 228.354C419.008 227.636 423.04 226.432 426.866 224.77C435.247 221.115 444.421 205.465 445.661 197.594C446.591 189.047 444.675 180.44 440.181 172.971C419.378 138.884 358.358 157.228 363.317 195.087C364.733 203.75 368.548 211.905 374.375 218.725ZM389.5 246.628C389.5 247.002 389.054 246.956 387.021 246.628C382.862 246.134 378.836 244.919 375.144 243.043C373.408 242.153 372.937 241.965 373.111 241.567C373.284 241.169 373.656 241.309 376.334 242.012C376.582 242.012 384.269 244.355 386.475 245.081C389.327 246.3 389.5 246.3 389.5 246.628ZM389.054 208.511C391.702 208.641 394.34 208.124 396.716 207.012C398.923 208.022 401.312 208.634 403.757 208.815C399.592 216.148 391.137 231.095 388.409 239.06L377.896 236.319C380.376 230.556 385.855 217.062 389.004 208.511H389.054ZM388.186 206.566C386.335 206.302 384.627 205.472 383.324 204.202C382.021 202.933 381.194 201.294 380.971 199.538C380.277 194.853 383.45 189.605 388.236 190.847C391.236 191.62 391.608 193.869 391.087 196.703C390.641 198.765 389.029 203.943 388.137 206.473L388.186 206.566ZM394.93 200.944C395.195 199.411 395.804 197.949 396.716 196.657C397.149 195.952 397.784 195.377 398.546 194.996C399.309 194.615 400.169 194.443 401.03 194.501C402.865 195.017 403.658 198.297 402.146 200.358C400.692 202.181 398.883 203.724 396.815 204.903C396.103 204.509 395.537 203.918 395.191 203.21C394.845 202.502 394.737 201.711 394.881 200.944H394.93ZM372.144 171.167C383.252 158.54 404.154 153.527 419.254 158.727C427.457 161.388 434.357 166.775 438.669 173.885C442.944 180.992 444.772 189.18 443.9 197.313C442.76 204.599 433.982 219.733 426.271 223.083C419.221 226.121 411.528 227.596 403.782 227.394C402.939 227.394 402.047 227.394 401.724 227.956C400.261 230.767 397.583 236.202 394.955 241.309C393.14 240.481 391.258 239.792 389.327 239.248C392.203 231.47 401.278 216.195 405.592 208.792C409.33 209.095 413.088 208.481 416.502 207.012C417.424 206.553 418.189 205.855 418.707 205C419.224 204.145 419.473 203.168 419.423 202.184C419.374 201.201 419.028 200.251 418.427 199.446C417.827 198.641 416.995 198.015 416.031 197.641C412.188 195.86 408.741 200.124 406.733 203.708C406.187 204.645 405.567 205.746 404.873 206.988C402.868 206.864 400.89 206.477 398.997 205.84C400.882 204.588 402.555 203.071 403.956 201.342C404.741 200.222 405.139 198.899 405.094 197.556C405.05 196.214 404.565 194.917 403.708 193.845C403.034 193.106 402.099 192.625 401.076 192.491C400.053 192.357 399.014 192.581 398.154 193.119C396.417 194.127 395.026 195.587 394.146 197.325C393.266 199.062 392.936 201.002 393.195 202.912C393.464 203.99 394.079 204.963 394.955 205.7C393.329 206.336 391.583 206.655 389.823 206.637C390.814 203.872 392.426 198.882 392.848 196.844C393.112 195.682 393.171 194.487 393.021 193.306C392.829 192.293 392.332 191.354 391.588 190.602C390.845 189.85 389.887 189.316 388.831 189.066C382.806 187.45 378.367 193.752 379.235 199.632C379.48 201.739 380.438 203.716 381.965 205.269C383.492 206.822 385.509 207.868 387.715 208.253C384.541 216.687 379.582 230.299 377.103 236.109L371.648 234.773C375.144 218.187 375.566 218.585 375.07 218.374C369.436 211.587 365.831 203.497 364.631 194.946C364.047 190.707 364.413 186.398 365.708 182.301C367.002 178.204 369.195 174.411 372.144 171.167ZM406.559 207.129C408.295 204.153 411.766 197.641 415.138 199.234C415.813 199.49 416.4 199.916 416.837 200.465C417.274 201.015 417.544 201.666 417.618 202.349C417.568 206.473 410.774 207.199 406.46 207.129H406.559ZM501.474 217.46C504.462 215.8 507.991 215.233 511.392 215.867C515.128 215.93 518.696 217.342 521.366 219.812C524.035 222.282 525.603 225.623 525.749 229.151C523.502 227.919 520.875 227.456 518.31 227.839C512.087 228.354 503.954 231.54 505.045 237.21C505.937 241.895 512.483 241.263 517.442 239.998C522.401 238.732 526.344 236.437 527.36 231.915C533.385 236.062 534.799 243.324 535.047 250.423C535.047 250.522 535.088 250.618 535.163 250.688C535.237 250.758 535.338 250.798 535.443 250.798C535.549 250.798 535.65 250.758 535.724 250.688C535.798 250.618 535.84 250.522 535.84 250.423C536.014 242.481 534.501 234.703 527.633 230.181C527.704 228.147 527.337 226.121 526.554 224.225C525.772 222.329 524.591 220.602 523.081 219.15C521.572 217.698 519.767 216.55 517.775 215.777C515.783 215.003 513.645 214.619 511.491 214.649C508.049 214.174 504.54 214.854 501.573 216.57C500.656 216.992 501.078 217.624 501.474 217.46ZM524.087 234.258C521.285 237.725 513.351 239.529 509.681 238.943C508.318 238.732 507.202 238.194 506.904 236.858C506.012 232.173 514.566 229.619 519.674 229.455C521.754 229.304 523.828 229.807 525.575 230.884C525.387 232.109 524.876 233.269 524.087 234.258ZM490.118 190.073C492.771 186.981 490.986 181.593 483.572 181.569C480.696 181.569 479.308 184.334 479.506 186.981C479.952 193.283 487.465 193.096 490.118 190.073ZM481.242 186.864C481.242 185.318 482.01 183.303 483.721 183.326C487.713 183.326 489.548 185.083 489.548 187.028C489.449 191.456 480.919 193.752 481.242 186.864ZM480.225 452.462C458.43 444.239 448.314 484.042 430.511 518.246C430.399 519.684 430.449 521.129 430.66 522.557C430.66 526.141 431.081 549.873 433.288 552.568C433.883 553.645 436.388 552.568 437.553 551.888C447.451 546.099 456.778 539.481 465.422 532.115C465.496 532.036 465.552 531.943 465.586 531.842C465.62 531.741 465.632 531.635 465.621 531.53C470.233 525.321 487.515 492.991 491.705 476.78C494.631 465.3 491.73 456.749 480.225 452.462ZM488.011 482.215C476.343 480.802 465.062 477.321 454.761 471.953C460.563 461.575 467.728 449.744 479.556 454.195C492.722 459.139 492.449 469.376 488.011 482.144V482.215ZM446.752 543.126C445.99 542.523 445.159 542.004 444.272 541.58C440.922 539.971 437.051 539.619 433.437 540.596C433.189 537.808 431.776 519.675 431.776 519.511C450.347 525.93 444.619 523.143 463.017 531.787C461.083 533.521 453.818 538.324 446.752 543.079V543.126ZM459.546 475.327C461.964 476.575 464.447 477.709 466.984 478.724C461.301 487.159 456.279 495.976 451.959 505.103C447.793 513.327 447.942 513.28 443.702 522.252C441.223 521.503 438.743 520.8 436.264 520.097C438.941 515.06 457.984 478.232 459.546 475.28V475.327ZM444.669 522.487C452.727 508.828 460.935 491.843 467.976 479.029C470.456 480.013 472.935 480.809 475.415 481.512C474.101 483.855 470.257 490.086 469.241 491.89C468.224 493.694 458.034 512.671 457.314 514.123C456.174 516.466 453.05 523.002 452.083 525.087C449.554 524.033 447.124 523.236 444.57 522.44L444.669 522.487ZM452.975 525.392C454.488 522.791 460.711 511.874 461.48 510.468C462.645 508.29 475.638 483.199 476.357 481.746C478.638 482.355 481.043 482.871 482.581 483.152C478.043 494.866 464.976 517.426 460.265 528.554C455.976 526.657 455.009 526.188 452.876 525.345L452.975 525.392ZM454.488 472.633L458.926 474.976C449.982 489.367 442.191 504.372 435.619 519.863L431.9 518.785C446.306 489.782 446.975 485.987 454.389 472.586L454.488 472.633ZM464.703 530.593L460.959 528.906C465.001 521.409 477.646 502.175 483.424 483.316C484.812 483.55 486.176 483.761 487.49 483.925C481.118 499.989 473.468 515.574 464.604 530.546L464.703 530.593ZM387.021 545.797C388.009 545.024 388.715 543.977 389.04 542.804C389.365 541.632 389.292 540.392 388.831 539.261C388.62 537.628 387.828 536.112 386.584 534.962C385.341 533.812 383.719 533.096 381.988 532.933C380.256 532.769 378.517 533.167 377.057 534.062C375.596 534.957 374.502 536.294 373.954 537.855C370.78 535.911 367.334 533.849 364.036 531.881C366.515 528.765 373.805 530.147 374.549 532.701C374.565 532.8 374.623 532.89 374.709 532.949C374.795 533.008 374.902 533.033 375.008 533.017C375.113 533.002 375.207 532.947 375.27 532.866C375.333 532.785 375.359 532.683 375.342 532.584C374.97 528.508 365.995 526.118 362.375 530.921C359.176 529.07 355.209 526.821 351.886 525.111C354.738 522.768 361.11 524.08 361.804 526.516C361.837 526.6 361.9 526.669 361.982 526.713C362.064 526.756 362.159 526.771 362.252 526.754C362.344 526.737 362.427 526.69 362.486 526.621C362.545 526.551 362.576 526.464 362.573 526.376C362.251 522.58 353.944 520.027 350.175 524.197C348.596 523.361 346.936 522.67 345.217 522.135C344.902 522.012 344.557 521.978 344.223 522.036C343.889 522.094 343.579 522.242 343.332 522.463C337.059 529.843 315.909 549.007 306.14 551.232C305.894 551.267 305.663 551.363 305.468 551.509C305.274 551.655 305.124 551.848 305.034 552.066C304.943 552.285 304.916 552.522 304.953 552.754C304.99 552.986 305.092 553.204 305.247 553.388C307.392 555.445 309.849 557.19 312.537 558.565C310.057 560.908 308.123 563.016 306.685 564.539C305.941 565.289 305.545 579.626 306.189 582.789C306.285 583.099 306.497 583.365 306.784 583.539C309.908 585.554 350.151 602 354.267 599.798C357.019 598.322 389.872 566.015 390.393 565.031C391.186 563.485 390.914 553.177 390.864 549.053C390.666 547.812 388.211 546.476 387.021 545.797ZM307.677 576.745V571.521C317.967 576.206 341.522 585.764 350.448 588.435C352.729 589.138 352.928 589.044 354.118 588.435C360.937 584.312 385.012 558.682 389.426 554.77V559.713C376.037 572.387 353.3 594.597 352.878 593.332C350.423 593.191 309.809 577.682 307.677 576.745ZM386.401 537.902C387.292 539.321 387.771 540.937 387.789 542.587C387.781 543.113 387.644 543.629 387.391 544.096C387.137 544.563 386.773 544.969 386.327 545.282C384.244 543.97 380.301 541.533 375.64 538.675C378.194 533.919 383.872 533.849 386.302 537.902H386.401ZM307.057 552.896C317.62 549.944 337.679 531.67 344.423 523.752C346.046 524.179 347.611 524.784 349.085 525.556C346.605 529.913 349.258 534.692 350.2 534.013C350.721 533.638 349.779 533.498 349.63 531.202C349.567 529.525 349.968 527.861 350.795 526.376C354.217 528.062 358.234 530.265 361.631 532.115C359.548 536.496 362.052 540.83 362.92 540.198C363.788 539.565 362.523 539.706 362.375 537.41C362.314 535.904 362.619 534.406 363.267 533.029C366.763 534.974 370.334 536.988 373.607 538.886C373.102 540.053 372.902 541.318 373.023 542.574C373.144 543.829 373.582 545.039 374.301 546.102C374.334 546.142 374.374 546.175 374.42 546.2C374.467 546.225 374.518 546.242 374.571 546.248C374.624 546.255 374.677 546.251 374.729 546.238C374.781 546.225 374.829 546.203 374.871 546.172C374.914 546.141 374.949 546.103 374.976 546.059C375.002 546.015 375.02 545.967 375.027 545.917C375.033 545.867 375.03 545.816 375.016 545.767C375.002 545.719 374.978 545.673 374.946 545.633C374.5 544.702 374.28 543.689 374.301 542.668C374.323 541.647 374.585 540.643 375.07 539.729C380.847 543.056 385.508 545.844 386.946 546.758C386.674 546.992 360.813 568.733 352.01 575.199C346.233 573.77 315.909 559.549 307.057 552.896ZM307.999 565.945C319.231 570.63 344.745 581.501 350.622 582.555C351.638 582.742 352.035 582.813 353.969 581.36C362.226 575.105 389.079 548.561 389.327 548.843C389.339 548.912 389.339 548.984 389.327 549.053V553.739C383.797 557.932 353.052 588.435 352.556 586.983C350.076 586.983 309.785 571.45 307.727 570.583C307.677 569.599 307.9 566.976 307.999 565.945ZM353.151 598.228C350.671 599.563 312.909 585.062 307.851 582.11C307.661 580.617 307.569 579.115 307.578 577.612C318.438 582.672 350.027 595.276 352.928 595.159C357.168 594.948 387.145 563.063 389.277 560.838C389.302 562.034 389.177 563.229 388.905 564.398C388.484 565.172 354.787 597.361 353.151 598.228ZM147.725 466.167C147.898 468.674 148.022 470.852 148.022 472.891C148.022 473.201 148.153 473.499 148.385 473.719C148.618 473.939 148.933 474.062 149.262 474.062C149.591 474.062 149.906 473.939 150.139 473.719C150.371 473.499 150.502 473.201 150.502 472.891C150.502 470.712 150.378 468.556 150.204 466.003C150.181 465.692 150.028 465.403 149.78 465.199C149.531 464.994 149.206 464.892 148.878 464.914C148.549 464.935 148.243 465.079 148.026 465.315C147.81 465.55 147.702 465.856 147.725 466.167ZM525.525 419.195C525.363 419.204 525.205 419.243 525.06 419.311C524.914 419.378 524.784 419.473 524.678 419.588C524.572 419.704 524.491 419.839 524.441 419.984C524.39 420.13 524.371 420.284 524.385 420.436C524.534 422.592 524.682 424.911 524.682 427.16C524.682 427.471 524.813 427.769 525.045 427.988C525.278 428.208 525.593 428.331 525.922 428.331C526.251 428.331 526.566 428.208 526.799 427.988C527.031 427.769 527.162 427.471 527.162 427.16C527.162 424.817 527.013 422.475 526.84 420.272C526.83 420.119 526.788 419.97 526.717 419.832C526.645 419.695 526.545 419.572 526.423 419.472C526.301 419.371 526.158 419.295 526.004 419.247C525.85 419.2 525.687 419.182 525.525 419.195ZM141.303 460.333C141.632 460.333 141.947 460.21 142.179 459.99C142.412 459.771 142.543 459.473 142.543 459.162C142.543 458.851 142.412 458.553 142.179 458.334C141.947 458.114 141.632 457.991 141.303 457.991C138.303 457.991 135.798 458.202 133.319 458.155C132.988 458.155 132.67 458.277 132.433 458.496C132.197 458.715 132.061 459.013 132.054 459.326C132.054 459.637 132.185 459.935 132.417 460.154C132.65 460.374 132.965 460.497 133.294 460.497C135.848 460.544 138.65 460.451 141.303 460.333ZM517.839 412.26C514.864 412.26 512.359 412.424 509.855 412.448C509.526 412.448 509.211 412.571 508.978 412.791C508.746 413.01 508.615 413.308 508.615 413.619C508.615 413.93 508.746 414.228 508.978 414.447C509.211 414.667 509.526 414.79 509.855 414.79C512.533 414.79 515.31 414.79 517.988 414.603C518.317 414.584 518.624 414.443 518.843 414.21C519.061 413.977 519.173 413.672 519.153 413.361C519.133 413.051 518.984 412.76 518.737 412.554C518.491 412.347 518.168 412.242 517.839 412.26ZM147.055 445.855C147.204 448.011 147.353 450.33 147.353 452.579C147.359 452.888 147.492 453.182 147.723 453.401C147.954 453.619 148.266 453.744 148.593 453.75C148.921 453.75 149.237 453.627 149.469 453.407C149.702 453.188 149.832 452.89 149.832 452.579C149.832 450.236 149.684 447.893 149.535 445.691C149.512 445.381 149.359 445.091 149.11 444.887C148.861 444.683 148.537 444.58 148.208 444.602C147.879 444.624 147.573 444.768 147.357 445.003C147.141 445.238 147.032 445.545 147.055 445.855ZM526.492 406.848C526.492 404.506 526.344 402.163 526.17 399.961C526.147 399.65 525.994 399.361 525.746 399.156C525.497 398.952 525.172 398.85 524.844 398.871C524.515 398.893 524.209 399.037 523.992 399.272C523.776 399.507 523.668 399.814 523.691 400.125C523.839 402.28 523.988 404.599 523.988 406.848C523.988 407.159 524.119 407.457 524.351 407.677C524.584 407.896 524.899 408.02 525.228 408.02C525.559 408.02 525.877 407.897 526.113 407.678C526.35 407.459 526.486 407.161 526.492 406.848ZM165.354 460.029C165.517 460.023 165.677 459.987 165.825 459.922C165.973 459.857 166.106 459.766 166.216 459.653C166.327 459.54 166.413 459.407 166.469 459.263C166.525 459.118 166.551 458.965 166.544 458.811C166.519 458.504 166.372 458.218 166.133 458.009C165.894 457.801 165.58 457.685 165.255 457.686C162.255 457.803 159.75 457.897 157.246 457.85C156.917 457.85 156.602 457.974 156.369 458.193C156.137 458.413 156.006 458.711 156.006 459.021C156.006 459.332 156.137 459.63 156.369 459.85C156.602 460.069 156.917 460.193 157.246 460.193C159.899 460.24 162.676 460.146 165.354 460.029ZM541.89 411.956C539.411 412.073 536.658 412.143 533.906 412.143C533.742 412.137 533.579 412.162 533.426 412.217C533.273 412.271 533.133 412.355 533.015 412.462C532.897 412.569 532.803 412.698 532.739 412.841C532.674 412.983 532.641 413.136 532.642 413.291C532.641 413.604 532.771 413.904 533.003 414.128C533.235 414.351 533.55 414.48 533.881 414.486C536.708 414.486 538.989 414.486 541.989 414.298C542.152 414.292 542.312 414.256 542.46 414.191C542.608 414.127 542.741 414.036 542.852 413.922C542.962 413.809 543.048 413.677 543.104 413.532C543.161 413.388 543.186 413.234 543.179 413.08C543.149 412.776 543 412.492 542.762 412.285C542.525 412.077 542.214 411.96 541.89 411.956ZM108.375 390.613C108.697 390.847 178.619 381.055 181.619 379.321C181.786 379.207 181.918 379.054 182.005 378.878C182.092 378.702 182.13 378.508 182.115 378.314C182.115 375.292 177.925 346.921 175.917 339.846C175.669 338.979 175.421 338.112 174.85 337.807C171.057 335.652 104.21 347.553 100.218 349.99C100.109 350.05 100.016 350.131 99.9433 350.228C99.8706 350.325 99.8205 350.436 99.7961 350.552C98.953 353.387 106.218 389.207 108.375 390.613ZM101.309 351.114C106.069 349.076 166.742 338.581 173.685 339.401C175.371 343.5 179.884 373.534 180.181 377.939C176.735 378.899 109.317 389.84 109.069 389.887C108.821 389.934 108.797 390.215 108.276 388.739C106.094 382.554 101.185 356.409 101.309 351.114Z" fill="black"/>
<path d="M187.074 381.406C187.209 381.169 187.269 380.901 187.248 380.633C187.248 376.908 181.595 335.558 179.586 332.255C179.429 332.012 179.206 331.812 178.94 331.676C178.675 331.54 178.376 331.473 178.074 331.482C169.767 330.522 99.6969 343.454 95.085 346.476C94.4403 346.897 94.5395 347.952 94.6139 349.076C95.0106 355.238 102.052 395.767 104.532 395.533C104.805 395.533 104.705 395.345 104.061 396.587C100.193 404.107 92.8535 428.191 93.0022 433.04C93.0022 435.079 93.4981 437.726 95.6305 437.585C110.929 435.805 185.934 424.56 207.505 420.366C208.348 420.202 208.894 419.476 208.869 418.281C208.615 416.291 207.976 414.361 206.985 412.588C203.96 407.223 191.413 385.974 187.074 381.406ZM104.681 394.807C102.747 392.464 95.6305 352.098 96.176 347.624C101.631 344.953 170.759 332.325 177.999 333.356C179.983 338.51 185.115 375.737 185.438 380.211C176.66 383.069 115.888 392.347 104.681 394.807ZM105.772 395.509C107.854 395.018 178.793 383.796 185.289 382.179C188.835 385.295 204.852 412.213 205.894 414.509C191.661 416.852 107.235 430.182 94.8123 431.963C94.9858 424.864 102.697 400.054 105.772 395.509Z" fill="black"/>
<path d="M115.095 419.804C117.252 419.499 163.023 414.298 179.561 410.058C179.663 410.033 179.751 409.971 179.804 409.885C179.858 409.8 179.873 409.697 179.847 409.601C179.82 409.505 179.755 409.422 179.664 409.372C179.573 409.321 179.465 409.307 179.363 409.332C176.115 409.964 136.493 414.954 115.045 419.078C114.986 419.067 114.925 419.07 114.867 419.086C114.809 419.101 114.755 419.129 114.711 419.167C114.666 419.205 114.63 419.252 114.608 419.304C114.585 419.357 114.575 419.414 114.579 419.471C114.583 419.527 114.6 419.583 114.63 419.632C114.66 419.681 114.701 419.724 114.751 419.756C114.8 419.788 114.857 419.809 114.917 419.817C114.976 419.826 115.037 419.821 115.095 419.804ZM148.543 256.795C147.617 258.772 146.838 260.807 146.212 262.886C146.175 263.22 146.273 263.554 146.485 263.823C148.989 267.384 174.652 294.724 181.347 298.566C182.264 299.105 183.355 299.48 184.025 298.707C188.888 292.989 195.234 288.558 202.447 285.845C208.318 283.883 214.473 282.784 220.696 282.589C225.655 282.167 226.523 281.699 228.432 278.63C230.684 274.591 233.672 270.958 237.259 267.9C241.833 264.121 246.909 260.924 252.359 258.388C252.605 258.257 252.797 258.052 252.904 257.805C253.012 257.559 253.03 257.286 252.954 257.029C252.116 255.014 251.008 253.109 249.657 251.36C250.549 251.079 251.541 250.821 251.541 249.978C251.541 247.635 229.92 218.069 223.92 212.494C223.3 211.908 222.407 211.135 221.589 211.182C209.191 211.838 197.116 222.895 190.124 232.548C182.115 232.266 176.933 231.587 167.809 235.218C161.367 237.802 155.56 241.614 150.75 246.417C150.006 247.143 144.948 252.203 144.873 252.602C144.799 253 144.948 253 148.543 256.795ZM247.723 256.139C237.383 257.802 230.788 265.932 225.928 274.764C223.771 278.7 223.969 278.887 221.688 278.84C217.699 278.627 213.698 278.768 209.737 279.262C206.832 279.672 203.975 280.347 201.207 281.277C194.91 283.385 187.694 290.132 183.851 295.146C183.769 295.249 183.666 295.335 183.546 295.397C183.427 295.46 183.295 295.498 183.16 295.509C183.024 295.52 182.887 295.504 182.758 295.461C182.63 295.419 182.512 295.351 182.413 295.263C174.354 287.415 160.097 273.639 152.932 265.721C152.585 265.37 153.18 264.854 153.527 265.229C158.163 269.914 170.139 281.136 182.983 293.342C187.322 288.118 194.017 281.792 200.637 279.59C204.247 278.373 208.004 277.586 211.82 277.247C215.393 276.991 218.982 276.991 222.556 277.247C224.019 275.654 231.259 257.568 247.673 255.553C247.721 255.587 247.761 255.63 247.789 255.68C247.817 255.729 247.832 255.784 247.835 255.841C247.837 255.897 247.826 255.953 247.802 256.005C247.779 256.056 247.743 256.102 247.698 256.139H247.723ZM221.564 213.079C226.523 216.359 246.706 244.589 249.334 249.533C244.774 250.898 240.371 252.695 236.193 254.897C232.237 256.771 228.773 259.456 226.053 262.755C223.334 266.054 221.427 269.884 220.473 273.967C211.572 260.286 199.149 245.222 190.893 234.141C191.389 233.836 205.323 213.993 221.564 213.079ZM168.354 236.507C177.404 233.063 182.413 233.86 189.901 234.164C197.339 246.159 210.704 263.074 219.506 274.155C211.382 272.338 202.833 273.449 195.529 277.271C191.141 279.613 185.785 285.236 182.487 288.727C177.727 285.119 150.254 257.474 145.84 252.789C152.634 245.526 158.907 240.068 168.354 236.413V236.507ZM122.979 296.083C122.367 295.677 121.642 295.447 120.894 295.422C120.146 295.397 119.406 295.578 118.764 295.942C118.297 296.139 117.875 296.421 117.523 296.772C117.171 297.123 116.896 297.536 116.713 297.987C116.53 298.439 116.443 298.92 116.457 299.403C116.47 299.886 116.585 300.362 116.793 300.804C117.001 301.245 117.3 301.644 117.671 301.976C118.042 302.309 118.479 302.569 118.957 302.742C119.435 302.915 119.944 302.997 120.456 302.984C120.967 302.971 121.471 302.863 121.938 302.666C122.684 302.512 123.364 302.147 123.886 301.62C124.407 301.092 124.747 300.428 124.86 299.714C124.973 299 124.854 298.27 124.518 297.622C124.182 296.973 123.645 296.437 122.979 296.083ZM121.343 300.769C119.607 301.284 118.566 300.769 118.144 299.972C117.351 298.309 118.343 295.755 120.921 296.505C122.731 297.137 124.194 300.019 121.343 300.886V300.769ZM249.062 188.879C249.781 190.261 253.128 189.745 254.591 189.3C255.36 189.066 255.855 188.808 255.93 188.106C256.153 186.348 256.401 171.121 255.558 169.645C255.471 169.49 255.337 169.363 255.174 169.28C255.011 169.196 254.825 169.16 254.641 169.176C251.995 169.169 249.363 169.532 246.83 170.254C245.814 170.839 248.169 187.332 249.062 188.879ZM247.351 170.816C249.641 170.506 251.958 170.404 254.269 170.511C254.417 172.245 254.021 187.262 253.996 187.496C252.948 187.851 251.83 187.979 250.723 187.871C250.549 187.332 250.252 185.88 249.88 184.053C248.787 179.686 247.943 175.268 247.351 170.816ZM120.574 276.31C120.812 276.425 121.076 276.485 121.343 276.485C121.61 276.485 121.874 276.425 122.112 276.31C123.069 275.752 123.829 274.936 124.293 273.967C124.357 273.812 124.376 273.645 124.35 273.48C124.324 273.316 124.253 273.161 124.145 273.03C122.955 271.695 109.962 257.474 108.375 258.365C106.427 259.556 104.578 260.888 102.846 262.347C102.776 262.406 102.72 262.479 102.682 262.559C102.643 262.64 102.623 262.727 102.623 262.816C102.573 264.034 117.004 274.951 120.574 276.31ZM108.673 258.974C110.483 260.215 116.582 267.337 122.235 273.639C121.992 274.001 121.691 274.325 121.343 274.6C115.399 271.006 109.724 267.029 104.358 262.699C105.703 261.364 107.145 260.12 108.673 258.974ZM147.626 207.293C148.171 198.203 153.775 193.986 159.626 192.908C157.965 198.671 158.238 206.168 164.263 207.129C167.139 207.574 168.552 206.168 170.635 204.528C179.537 197.5 172.346 190.472 162.304 190.964C166.048 181.265 174.702 173.37 186.182 173.112C186.287 173.112 186.388 173.072 186.462 173.002C186.537 172.932 186.578 172.837 186.578 172.737C186.578 172.638 186.537 172.542 186.462 172.472C186.388 172.402 186.287 172.362 186.182 172.362C173.784 172.128 164.04 180.562 160.197 191.104C153.576 192.182 147.006 196.867 146.832 207.152C146.822 207.201 146.823 207.252 146.834 207.301C146.845 207.35 146.866 207.396 146.896 207.438C146.926 207.479 146.964 207.514 147.008 207.542C147.053 207.569 147.102 207.588 147.154 207.597C147.207 207.606 147.26 207.606 147.312 207.596C147.364 207.585 147.413 207.565 147.457 207.537C147.5 207.509 147.538 207.473 147.567 207.431C147.596 207.389 147.616 207.342 147.626 207.293ZM161.734 192.627C165.428 192.393 170.933 193.47 172.445 196.633C173.313 198.437 172.445 200.663 169.371 203.099C168.536 203.889 167.584 204.56 166.544 205.091C162.825 206.59 158.709 202.256 161.734 192.627ZM168.825 523.963C166.43 523.356 163.93 523.209 161.473 523.529C159.017 523.849 156.652 524.63 154.52 525.827C152.388 527.023 150.53 528.61 149.056 530.495C147.583 532.379 146.523 534.523 145.939 536.801C144.838 541.532 145.771 546.483 148.533 550.565C151.295 554.647 155.66 557.524 160.668 558.565C165.675 559.606 170.915 558.724 175.235 556.115C179.555 553.505 182.601 549.381 183.702 544.649C184.173 542.367 184.161 540.02 183.666 537.742C183.172 535.464 182.206 533.302 180.823 531.379C179.44 529.456 177.668 527.811 175.609 526.538C173.549 525.265 171.244 524.39 168.825 523.963ZM176.487 543.056C175.492 546.805 173.11 550.094 169.772 552.328C166.434 554.563 162.361 555.595 158.287 555.238C154.548 553.858 151.444 551.276 149.521 547.946C147.598 544.617 146.98 540.753 147.774 537.035C148.702 533.195 151.062 529.799 154.422 527.467C157.782 525.136 161.917 524.025 166.073 524.337C169.849 525.811 172.954 528.497 174.84 531.921C176.727 535.345 177.275 539.288 176.388 543.056H176.487Z" fill="black"/>
<path d="M201.852 530.639C199.694 529.936 197.38 529.766 195.133 530.148C194.201 528.13 193.055 526.206 191.711 524.408C193.323 523.026 197.736 519.183 196.67 517.379C192.875 513.091 188.371 509.412 183.33 506.486C181.226 505.372 178.908 504.663 176.512 504.401C174.925 504.611 171.156 510.445 170.313 511.757C169.767 511.757 167.833 511.171 167.685 511.101C167.685 509.414 167.164 503.323 165.552 502.62C163.75 501.993 161.878 501.561 159.973 501.332C158.213 501.074 142.369 503.815 141.204 505.83C140.435 507.189 142.22 512.319 142.741 513.748C141.404 514.444 140.119 515.226 138.898 516.091C136.418 517.754 137.088 517.684 136.641 517.497C136.102 517.253 135.524 517.095 134.93 517.028C132.95 515.931 130.628 515.517 128.36 515.857C126.079 516.56 120.698 528.133 119.83 531.108C119.546 531.858 119.47 532.665 119.607 533.451C120.202 534.997 124.169 536.239 125.831 536.731C125.372 539.745 125.372 542.806 125.831 545.821C123.649 546.383 119.111 547.648 119.359 549.756C119.607 551.865 125.409 565.781 127.814 566.882C129.132 567.578 130.589 568.006 132.092 568.14C133.595 568.273 135.111 568.108 136.542 567.655C137.348 567.275 138.127 566.844 138.873 566.366C139.865 567.069 140.906 567.702 141.972 568.311C141.204 570.115 139.493 574.144 140.038 575.972C140.311 576.932 141.129 577.237 142.27 577.635C145.419 578.713 162.378 582.555 164.957 582.133C165.924 581.993 166.445 581.032 166.742 580.118C167.293 578.039 167.617 575.911 167.709 573.77C168.983 573.651 170.249 573.471 171.503 573.231C172.269 574.504 173.249 575.651 174.404 576.628C175.669 577.471 176.735 577.049 178.173 576.183C178.867 577.026 179.909 578.197 181.024 578.315C183.826 578.619 195.405 568.311 196.596 566.202C197.587 564.445 193.967 561.306 192.356 559.924C194.099 557.445 195.468 554.748 196.422 551.912C198.21 552.166 200.02 552.26 201.827 552.193C202.646 552.193 203.588 551.912 203.935 551.185C205.447 547.929 205.001 535.583 203.935 532.443C203.786 531.53 202.67 530.921 201.852 530.639ZM202.447 532.795C203.29 535.84 203.563 547.343 202.323 550.319C200.179 550.518 198.016 550.424 195.901 550.037C195.675 550.001 195.443 550.046 195.251 550.163C195.058 550.28 194.919 550.461 194.86 550.67C193.872 553.837 192.339 556.829 190.322 559.526C190.179 559.704 190.114 559.929 190.142 560.151C190.169 560.374 190.288 560.578 190.471 560.72C192.211 562.023 193.689 563.61 194.835 565.406C193.595 567.327 183.901 575.714 181.223 576.417C180.826 576.417 179.735 575.011 179.462 574.636C178.546 573.336 177.718 571.982 176.983 570.583C176.875 570.379 176.691 570.221 176.467 570.138C176.242 570.056 175.993 570.056 175.768 570.138C168.577 572.692 165.85 571.193 165.85 572.879C165.853 575.405 165.417 577.914 164.56 580.306C158.734 579.707 152.995 578.497 147.452 576.698C147.72 574.197 148.459 571.761 149.634 569.506C150.378 567.936 147.402 568.381 141.848 563.04C141.67 562.883 141.435 562.796 141.191 562.796C140.948 562.796 140.713 562.883 140.534 563.04C138.055 564.961 134.831 566.835 134.187 566.53C132.922 565.945 127.095 553.458 126.748 550.928C128.512 549.767 130.514 548.968 132.625 548.585C132.85 548.525 133.044 548.39 133.172 548.204C133.299 548.019 133.352 547.796 133.319 547.578C132.711 544.26 132.711 540.868 133.319 537.551C133.357 537.346 133.311 537.136 133.192 536.962C133.072 536.788 132.887 536.664 132.674 536.613C130.805 536.151 129.005 535.466 127.318 534.575C126.773 534.2 126.823 534.224 126.872 533.826C128.477 528.357 131.051 523.184 134.484 518.527C135.823 518.176 139.443 520.683 140.683 521.573C140.812 521.692 140.986 521.758 141.166 521.758C141.347 521.758 141.52 521.692 141.65 521.573C142.789 520.457 144.016 519.423 145.32 518.481C149.088 515.786 150.105 516.138 149.783 515.201C148.643 512.85 148.003 510.311 147.898 507.727C148.283 507.425 148.719 507.188 149.188 507.025C151.502 506.16 153.881 505.455 156.304 504.916C159.241 504.143 162.259 503.679 165.304 503.534C165.825 503.745 166.296 505.877 166.42 506.533C167.337 511.218 166.718 512.179 167.437 512.249C174.503 512.905 175.941 514.756 176.437 513.936C177.812 511.664 179.415 509.522 181.223 507.54C181.743 507.048 181.719 506.814 183.281 507.657C187.947 510.538 192.127 514.069 195.678 518.129C196.05 518.738 192.827 521.971 190.471 523.869C189.653 524.548 190.818 524.853 192.951 528.695C195.083 532.537 194.587 533.615 195.728 533.38C197.926 532.883 200.189 532.686 202.447 532.795ZM546.576 337.034C541.379 335.028 535.928 333.666 530.36 332.981C526.294 332.372 521.509 331.763 517.467 331.271C521.36 326.07 532.889 312.904 534.823 309.694C535.369 308.828 534.328 307.609 533.559 306.883C529.245 302.526 520.914 300.886 514.516 299.949C510.847 299.386 495.523 297.606 492.92 298.777C489.796 300.183 466.687 332.981 465.993 337.971C465.993 338.815 466.29 339.143 467.158 339.447C470.803 340.712 487.242 342.68 490.912 343.5C485.953 351.7 463.91 379.415 461.753 383.327C461.232 384.311 461.554 384.897 462.174 385.084C464.406 385.921 466.702 386.595 469.042 387.099C469.935 387.357 471.894 386.209 474.745 384.569C487.54 377.306 542.436 343.055 546.651 338.627C546.767 338.524 546.858 338.397 546.918 338.257C546.979 338.117 547.006 337.966 546.999 337.815C546.992 337.664 546.95 337.516 546.878 337.381C546.805 337.246 546.702 337.128 546.576 337.034ZM493.292 365.147C472.216 378.29 465.1 382.132 464.852 382.296C468.249 377.4 489.35 350.083 492.97 343.547C493.033 343.421 493.065 343.283 493.064 343.143C493.064 343.004 493.03 342.866 492.966 342.74C492.902 342.615 492.809 342.504 492.694 342.417C492.578 342.329 492.444 342.267 492.3 342.235C489.821 341.392 471.77 339.565 467.505 338.135C468.051 333.778 490.564 300.839 493.292 299.527C496.019 298.215 522.476 301.19 527.435 304.54C524.831 309.343 510.45 326.164 508.119 330.076C507.648 330.873 507.499 331.646 508.417 331.857C509.334 332.068 532.642 334.645 537.724 336.214C531.526 341.111 500.235 360.743 493.292 365.054V365.147ZM334.232 221.911C334.232 222.122 334.381 222.38 334.753 223.739C334.851 224.034 335.065 224.281 335.352 224.43C335.638 224.578 335.975 224.616 336.29 224.535C336.606 224.448 336.872 224.246 337.03 223.974C337.188 223.702 337.225 223.381 337.133 223.083C336.885 222.169 336.662 221.396 336.513 221.021C336.369 220.764 336.128 220.567 335.838 220.468C335.548 220.369 335.23 220.376 334.945 220.488C334.66 220.599 334.429 220.806 334.298 221.069C334.166 221.333 334.143 221.633 334.232 221.911Z" fill="black"/>
<defs>
<filter id="filter0_b_27_311" x="174.543" y="624.57" width="291.849" height="26.6879" filterUnits="userSpaceOnUse" color-interpolation-filters="sRGB">
<feFlood flood-opacity="0" result="BackgroundImageFix"/>
<feGaussianBlur in="BackgroundImageFix" stdDeviation="2"/>
<feComposite in2="SourceAlpha" operator="in" result="effect1_backgroundBlur_27_311"/>
<feBlend mode="normal" in="SourceGraphic" in2="effect1_backgroundBlur_27_311" result="shape"/>
</filter>
<linearGradient id="paint0_linear_27_311" x1="320" y1="0" x2="320" y2="832" gradientUnits="userSpaceOnUse">
<stop offset="0.0383262" stop-color="#7F4FC3"/>
<stop offset="0.9999" stop-color="#7F4FC3" stop-opacity="0.0104167"/>
<stop offset="1" stop-color="#7F4FC3" stop-opacity="0"/>
</linearGradient>
</defs>
</svg>
